<svg xmlns="http://www.w3.org/2000/svg" viewBox="0 0 760 760">
  <rect width="760" height="760" rx="120" fill="#0e1013" />
  <g fill="#ffb454" transform="translate(61.5 151)">
    <rect x="0" y="0" width="17" height="101" rx="6" />
    <rect x="0" y="120" width="17" height="101" rx="6" />
    <rect x="0" y="240" width="17" height="100" rx="6" />
    <rect x="0" y="359" width="17" height="99" rx="6" />
    <rect x="37" y="42" width="17" height="128" rx="6" />
    <rect x="71" y="102" width="18" height="119" rx="6" />
    <rect x="107" y="147" width="17" height="126" rx="6" />
    <rect x="143" y="192" width="17" height="136" rx="6" />
    <rect x="179" y="148" width="18" height="125" rx="6" />
    <rect x="216" y="113" width="17" height="108" rx="6" />
    <rect x="252" y="53" width="17" height="123" rx="6" />
    <rect x="288" y="0" width="17" height="101" rx="6" />
    <rect x="288" y="120" width="17" height="101" rx="6" />
    <rect x="288" y="240" width="17" height="100" rx="6" />
    <rect x="288" y="359" width="17" height="99" rx="6" />
    <rect x="324" y="42" width="17" height="128" rx="6" />
    <rect x="358" y="102" width="18" height="112" rx="6" />
    <rect x="393" y="159" width="17" height="114" rx="6" />
    <rect x="428" y="209" width="17" height="126" rx="6" />
    <rect x="463" y="274" width="18" height="127" rx="6" />
    <rect x="512" y="0" width="18" height="101" rx="6" />
    <rect x="512" y="120" width="18" height="101" rx="6" />
    <rect x="512" y="240" width="18" height="100" rx="6" />
    <rect x="512" y="359" width="18" height="99" rx="6" />
    <rect x="579" y="401" width="58" height="57" rx="10" />
  </g>
</svg>
